<?xml version="1.0" encoding="UTF-8" standalone="no"?>
<!DOCTYPE svg PUBLIC "-//W3C//DTD SVG 1.1//EN" "http://www.w3.org/Graphics/SVG/1.1/DTD/svg11.dtd">
<svg width="100%" height="100%" viewBox="0 0 1024 1024" version="1.1" xmlns="http://www.w3.org/2000/svg" xmlns:xlink="http://www.w3.org/1999/xlink" xml:space="preserve" xmlns:serif="http://www.serif.com/" style="fill-rule:evenodd;clip-rule:evenodd;stroke-linejoin:round;stroke-miterlimit:2;">
    <g id="Layer-1" serif:id="Layer 1">
        <path id="path84-6" d="M417.615,76.875C375.223,86.299 333.289,99.42 293.973,119.209C294.872,153.925 297.116,187.189 301.666,220.977C286.398,230.759 270.351,239.154 256.09,250.605C241.6,261.753 226.8,272.418 213.68,285.455C187.468,268.118 159.725,251.825 131.145,237.443C100.337,270.599 71.531,306.383 48,346.428C65.704,375.066 84.185,401.912 104.141,427.387L104.699,427.387L104.699,673.152C105.149,673.156 105.598,673.173 106.043,673.215L256.713,687.742C264.605,688.504 270.79,694.857 271.34,702.766L275.986,769.275L407.416,778.654L416.471,717.268C417.645,709.309 424.471,703.41 432.521,703.41L591.482,703.41C599.529,703.41 606.355,709.309 607.529,717.268L616.584,778.654L748.018,769.275L752.66,702.766C753.214,694.857 759.395,688.508 767.287,687.742L917.898,673.215C918.344,673.173 918.789,673.157 919.238,673.152L919.238,653.541L919.301,653.522L919.301,427.387L919.859,427.387C939.819,401.912 958.288,375.066 976,346.428C952.477,306.383 923.655,270.599 892.848,237.443C864.275,251.825 836.522,268.118 810.311,285.455C797.194,272.418 782.421,261.753 767.91,250.605C753.653,239.154 737.587,230.759 722.348,220.977C726.885,187.189 729.128,153.925 730.031,119.209C690.711,99.42 648.782,86.299 606.369,76.875C589.436,105.335 573.95,136.154 560.463,166.283C544.47,163.611 528.403,162.621 512.314,162.43L512.314,162.404C512.202,162.404 512.098,162.43 512.002,162.43C511.902,162.43 511.797,162.404 511.697,162.404L511.697,162.43C495.58,162.621 479.526,163.611 463.529,166.283C450.051,136.154 434.574,105.335 417.615,76.875ZM298.416,436.398C348.567,436.398 389.215,477.016 389.215,527.15C389.215,577.318 348.567,617.959 298.416,617.959C248.29,617.959 207.629,577.318 207.629,527.15C207.629,477.016 248.29,436.398 298.416,436.398ZM725.594,436.398C775.716,436.398 816.373,477.016 816.373,527.15C816.373,577.318 775.716,617.959 725.594,617.959C675.434,617.959 634.787,577.318 634.787,527.15C634.787,477.016 675.434,436.398 725.594,436.398ZM511.994,489.508C528.137,489.508 541.248,501.416 541.248,516.068L541.248,599.658C541.248,614.323 528.137,626.221 511.994,626.221C495.852,626.221 482.768,614.323 482.768,599.658L482.768,516.068C482.768,501.416 495.852,489.508 511.994,489.508ZM784.071,718.723L779.405,785.587C778.843,793.646 772.433,800.061 764.374,800.639L603.884,812.09C603.493,812.12 603.102,812.132 602.715,812.132C594.739,812.132 587.858,806.279 586.68,798.271L577.477,735.856L446.525,735.856L437.322,798.271C436.085,806.671 428.576,812.711 420.118,812.09L259.628,800.639C251.569,800.061 245.159,793.646 244.597,785.587L239.931,718.723L104.45,705.661C104.513,720.222 104.7,736.173 104.7,739.349C104.7,882.434 286.211,951.209 511.724,952L512.278,952C737.792,951.209 919.24,882.434 919.24,739.349C919.24,736.115 919.435,720.23 919.502,705.661L784.071,718.723ZM367.367,532.537C367.367,565.813 340.397,592.783 307.096,592.783C273.812,592.783 246.826,565.813 246.826,532.537C246.826,499.261 273.812,472.267 307.096,472.267C340.397,472.267 367.367,499.261 367.367,532.537M656.641,532.537C656.641,565.813 683.602,592.783 716.878,592.783C750.187,592.783 777.148,565.813 777.148,532.537C777.148,499.261 750.187,472.267 716.878,472.267C683.602,472.267 656.641,499.261 656.641,532.537" style="fill:white;fill-rule:nonzero;"/>
    </g>
</svg>
